<svg width="38" height="40" viewBox="0 0 38 40" fill="none" xmlns="http://www.w3.org/2000/svg">
<path d="M13.5417 33.3333C12.9236 33.3333 12.3194 33.5166 11.8055 33.86C11.2916 34.2034 10.8911 34.6914 10.6545 35.2624C10.418 35.8335 10.3561 36.4618 10.4767 37.068C10.5973 37.6742 10.8949 38.231 11.332 38.668C11.769 39.1051 12.3258 39.4027 12.932 39.5233C13.5382 39.6439 14.1665 39.582 14.7376 39.3455C15.3086 39.1089 15.7966 38.7084 16.14 38.1945C16.4834 37.6806 16.6667 37.0764 16.6667 36.4583C16.6667 35.6295 16.3374 34.8347 15.7514 34.2486C15.1653 33.6626 14.3705 33.3333 13.5417 33.3333ZM35.4167 27.0833H10.4167C9.86413 27.0833 9.33423 26.8638 8.94353 26.4731C8.55283 26.0824 8.33333 25.5525 8.33333 25C8.33333 24.4475 8.55283 23.9176 8.94353 23.5269C9.33423 23.1362 9.86413 22.9167 10.4167 22.9167H28.1067C29.4638 22.9123 30.783 22.4682 31.8665 21.651C32.95 20.8338 33.7395 19.6875 34.1167 18.3838L37.4196 6.82271C37.5083 6.51265 37.5237 6.18625 37.4647 5.86922C37.4058 5.55218 37.274 5.25316 37.0798 4.99569C36.8857 4.73822 36.6344 4.52934 36.3458 4.38548C36.0572 4.24162 35.7391 4.16672 35.4167 4.16667H9.87306C9.44178 2.95283 8.64676 1.90148 7.5963 1.15586C6.54585 0.410246 5.29106 0.00662656 4.0029 0H2.08333C1.5308 0 1.00089 0.219493 0.610194 0.610194C0.219493 1.00089 0 1.5308 0 2.08333C0 2.63587 0.219493 3.16577 0.610194 3.55647C1.00089 3.94717 1.5308 4.16667 2.08333 4.16667H4.0029C4.45515 4.16825 4.89473 4.31628 5.2558 4.5886C5.61688 4.86093 5.88003 5.24289 6.00585 5.67729L6.32985 6.81217L6.33035 6.82271L9.74833 18.7856C8.15784 18.9567 6.69348 19.7311 5.6568 20.9494C4.62012 22.1677 4.09003 23.7371 4.17568 25.3345C4.26133 26.9319 4.9562 28.4356 6.11721 29.5361C7.27823 30.6366 8.81699 31.25 10.4167 31.25H35.4167C35.9692 31.25 36.4991 31.0305 36.8898 30.6398C37.2805 30.2491 37.5 29.7192 37.5 29.1667C37.5 28.6141 37.2805 28.0842 36.8898 27.6935C36.4991 27.3028 35.9692 27.0833 35.4167 27.0833ZM32.6548 8.33333L30.1107 17.2384C29.985 17.6731 29.7218 18.0554 29.3605 18.328C28.9992 18.6005 28.5592 18.7486 28.1067 18.75H14.0716L13.5405 16.8912L11.0967 8.33333H32.6548ZM30.2083 33.3333C29.5903 33.3333 28.9861 33.5166 28.4722 33.86C27.9583 34.2034 27.5577 34.6914 27.3212 35.2624C27.0847 35.8335 27.0228 36.4618 27.1434 37.068C27.264 37.6742 27.5616 38.231 27.9986 38.668C28.4357 39.1051 28.9925 39.4027 29.5987 39.5233C30.2049 39.6439 30.8332 39.582 31.4042 39.3455C31.9752 39.1089 32.4633 38.7084 32.8067 38.1945C33.1501 37.6806 33.3333 37.0764 33.3333 36.4583C33.3333 35.6295 33.0041 34.8347 32.418 34.2486C31.832 33.6626 31.0371 33.3333 30.2083 33.3333Z" fill="#00F99E"/>
</svg>
