<svg width="50" height="50" viewBox="0 0 50 50" fill="none" xmlns="http://www.w3.org/2000/svg">
<path d="M41.6667 6.25H8.33334C4.88178 6.25 2.08334 9.04844 2.08334 12.5V37.5C2.08334 40.9516 4.88178 43.75 8.33334 43.75H41.6667C45.1182 43.75 47.9167 40.9516 47.9167 37.5V12.5C47.9167 9.04844 45.1182 6.25 41.6667 6.25ZM41.6667 10.4167C41.9073 10.4167 42.1386 10.4573 42.3531 10.5328L25 24.4156L7.64689 10.5328C7.86147 10.4573 8.09272 10.4167 8.33334 10.4167H41.6667ZM41.6667 39.5833H8.33334C7.18282 39.5833 6.25001 38.6505 6.25001 37.5V14.751L23.6984 28.7099C24.0787 29.0146 24.5391 29.1667 25 29.1667C25.4609 29.1667 25.9214 29.0146 26.3016 28.7099L43.75 14.751V37.5C43.75 38.6505 42.8172 39.5833 41.6667 39.5833Z" fill="#00F99E"/>
</svg>
