<svg width="32" height="34" viewBox="0 0 32 34" fill="none" xmlns="http://www.w3.org/2000/svg">
<path d="M30.2763 30.1651L22.7093 22.1252C24.3517 19.9439 25.3333 17.1771 25.3333 14.1667C25.3333 7.12515 19.961 1.41669 13.3333 1.41669C6.706 1.41669 1.33333 7.12515 1.33333 14.1667C1.33333 21.2082 6.706 26.9167 13.3333 26.9167C16.1667 26.9167 18.7707 25.8733 20.8237 24.1283L28.3907 32.1683C28.651 32.4449 28.9923 32.5834 29.3333 32.5834C29.6747 32.5834 30.016 32.4449 30.2763 32.1683C30.797 31.6154 30.797 30.718 30.2763 30.1651ZM13.3333 24.0834C8.17866 24.0834 3.99999 19.6435 3.99999 14.1667C3.99999 8.68985 8.17866 4.25002 13.3333 4.25002C18.4883 4.25002 22.6667 8.68985 22.6667 14.1667C22.6667 19.6435 18.4883 24.0834 13.3333 24.0834Z" fill="black"/>
</svg>
